<?xml version="1.0" encoding="UTF-8"?>
<svg version="1.1" xmlns="http://www.w3.org/2000/svg" width="403" height="451">
<path d="M0 0 C1.83110256 -0.0043542 3.66220331 -0.00953969 5.49330139 -0.01548767 C10.439734 -0.02881347 15.38608989 -0.02946347 20.33253694 -0.02692437 C24.47481763 -0.02585019 28.61708308 -0.03074949 32.75936049 -0.03552979 C42.53912966 -0.04660301 52.31886042 -0.04707485 62.09863281 -0.04101562 C72.15800972 -0.03497859 82.21724667 -0.04728506 92.27659971 -0.06858569 C100.94024727 -0.0862504 109.60385047 -0.09219535 118.26751536 -0.08894795 C123.42996226 -0.08714254 128.59230932 -0.08969663 133.75473976 -0.10366249 C138.61317459 -0.11631555 143.47139262 -0.1142266 148.32982445 -0.1012516 C150.10260469 -0.09890238 151.87540054 -0.10156039 153.64816284 -0.10987473 C168.44576198 -0.17421738 182.8571415 0.22965732 194.71557617 10.2746582 C205.14068339 20.61129209 209.09339798 30.30277773 209.2595042 44.95698369 C209.2691559 47.74979141 209.25931696 50.54216077 209.24902344 53.33496094 C209.25609021 55.35650256 209.26483841 57.37803888 209.27513123 59.39956665 C209.2975494 64.86451015 209.29470321 70.329163 209.28580976 75.79413486 C209.2806839 80.36657948 209.28800536 84.93897026 209.29528183 89.51140934 C209.31225672 100.30273916 209.30873915 111.09392748 209.29199219 121.88525391 C209.2750707 132.9967662 209.29091148 144.10788564 209.32321507 155.21935505 C209.34995294 164.7806489 209.35717569 174.34182077 209.34869999 183.90314823 C209.34378337 189.60437401 209.345918 195.30536349 209.3664875 201.00655937 C209.38491065 206.36906865 209.37880476 211.73101495 209.3542881 217.09349442 C209.34930138 219.05416779 209.35271396 221.01488456 209.36543655 222.97552299 C209.44593611 236.45385828 208.36889915 247.76752223 199.09057617 258.3371582 C198.33518555 259.21500977 197.57979492 260.09286133 196.80151367 260.99731445 C195.76897461 262.12459961 195.76897461 262.12459961 194.71557617 263.2746582 C193.89959961 264.16991211 193.89959961 264.16991211 193.06713867 265.08325195 C191.71557617 266.2746582 191.71557617 266.2746582 189.71557617 266.2746582 C189.48483398 266.83282227 189.2540918 267.39098633 189.01635742 267.96606445 C187.37024108 270.88755021 185.30484486 272.87520487 182.90307617 275.2121582 C182.05100586 276.04618164 181.19893555 276.88020508 180.32104492 277.73950195 C179.03133789 278.9944043 179.03133789 278.9944043 177.71557617 280.2746582 C175.15992823 282.81433334 172.62365887 285.36905603 170.11010742 287.95043945 C169.25803711 288.82055664 168.4059668 289.69067383 167.52807617 290.5871582 C166.66827148 291.47016602 165.8084668 292.35317383 164.92260742 293.26293945 C162.71557617 295.2746582 162.71557617 295.2746582 160.71557617 295.2746582 C160.48483398 295.83282227 160.2540918 296.39098633 160.01635742 296.96606445 C158.37024108 299.88755021 156.30484486 301.87520487 153.90307617 304.2121582 C153.05100586 305.04618164 152.19893555 305.88020508 151.32104492 306.73950195 C150.03133789 307.9944043 150.03133789 307.9944043 148.71557617 309.2746582 C146.08695171 311.8866458 143.47746195 314.51522667 140.89135742 317.16918945 C139.93695527 318.14187017 138.98252805 319.11452629 138.02807617 320.0871582 C137.54274414 320.58924805 137.05741211 321.09133789 136.55737305 321.60864258 C135.31433011 322.86883093 134.01857725 324.07656864 132.71557617 325.2746582 C132.05557617 325.2746582 131.39557617 325.2746582 130.71557617 325.2746582 C130.48483398 325.83282227 130.2540918 326.39098633 130.01635742 326.96606445 C128.37024108 329.88755021 126.30484486 331.87520487 123.90307617 334.2121582 C123.05100586 335.04618164 122.19893555 335.88020508 121.32104492 336.73950195 C120.03133789 337.9944043 120.03133789 337.9944043 118.71557617 339.2746582 C115.79432248 342.17152748 112.91018178 345.10115962 110.04370117 348.05200195 C108.68448511 349.43887649 107.32510651 350.82559175 105.96557617 352.2121582 C104.9678418 353.24759766 104.9678418 353.24759766 103.94995117 354.30395508 C95.59638012 362.77801033 85.64152646 369.92645795 73.34648705 370.40608597 C71.97786867 370.41417738 70.60921133 370.41678165 69.24057007 370.4151001 C68.1067159 370.41955678 68.1067159 370.41955678 66.94995558 370.4241035 C64.41527494 370.43277976 61.88064158 370.43429785 59.34594727 370.43579102 C57.5290924 370.44042004 55.71223851 370.44544482 53.89538574 370.45083618 C48.9570925 370.46395622 44.01881285 370.47040466 39.08050489 370.47484684 C35.99353446 370.47777891 32.90656772 370.48188403 29.81959915 370.48635101 C20.1564191 370.50002646 10.49324752 370.50969223 0.83005846 370.5135529 C-10.3152548 370.5180304 -21.46044521 370.53556379 -32.60572112 370.5645535 C-41.22584681 370.58619457 -49.845938 370.59625852 -58.46609056 370.59759402 C-63.61175597 370.59864054 -68.75730591 370.60451549 -73.90294266 370.62241364 C-78.74730697 370.63893567 -83.59146954 370.64102978 -88.43585205 370.63227463 C-90.2086987 370.6315064 -91.98155637 370.63581861 -93.75437546 370.64573288 C-115.188775 370.75851979 -115.188775 370.75851979 -124.09692383 364.3371582 C-124.78399414 363.85375977 -125.47106445 363.37036133 -126.17895508 362.87231445 C-127.22116211 362.08147461 -127.22116211 362.08147461 -128.28442383 361.2746582 C-129.10942383 360.6868457 -129.93442383 360.0990332 -130.78442383 359.4934082 C-133.70828055 356.89848536 -135.56956863 354.07558152 -137.47192383 350.7121582 C-137.81416992 350.15463867 -138.15641602 349.59711914 -138.5090332 349.02270508 C-144.21487604 339.08456717 -143.57939659 327.37708159 -143.55908203 316.26928711 C-143.563438 314.68286399 -143.56862407 313.09644298 -143.5745697 311.51002502 C-143.58787565 307.23099036 -143.58854782 302.95204448 -143.5860064 298.67299318 C-143.58493098 295.08733082 -143.58983457 291.501686 -143.59461182 287.91602743 C-143.6056779 279.44994549 -143.60616076 270.98390793 -143.60009766 262.51782227 C-143.59405953 253.81375381 -143.60637146 245.10984707 -143.62766773 236.40580618 C-143.64533874 228.90479594 -143.65127645 221.40383691 -143.64802998 213.90280664 C-143.64622577 209.43511511 -143.64876652 204.96753897 -143.66274452 200.49986649 C-143.67540825 196.29558177 -143.67329888 192.09154745 -143.66033363 187.88726616 C-143.6579868 186.35433679 -143.66063365 184.82138932 -143.66895676 183.28848076 C-143.72889975 171.37937025 -142.99973273 159.69336736 -136.65942383 149.3137207 C-136.14109985 148.45346786 -136.14109985 148.45346786 -135.61230469 147.57583618 C-134.5261365 145.79298589 -133.4117798 144.03171182 -132.28442383 142.2746582 C-131.92010254 141.70453003 -131.55578125 141.13440186 -131.18041992 140.54699707 C-128.60466322 136.54282992 -125.95304241 132.59229759 -123.28442383 128.6496582 C-122.52095468 127.51454294 -121.75793349 126.37912626 -120.99536133 125.2434082 C-119.48857353 123.00040553 -117.97945373 120.75900104 -116.46850586 118.51879883 C-113.7330698 114.45570086 -111.017469 110.37959853 -108.30297852 106.30249023 C-106.17978674 103.11770257 -104.04909269 99.9380266 -101.91723633 96.7590332 C-91.57506826 81.33235869 -91.57506826 81.33235869 -81.62866211 65.64892578 C-77.75403962 59.37136496 -73.65492727 53.25152678 -69.53442383 47.13354492 C-67.86031663 44.64396441 -66.19646477 42.14763163 -64.53417969 39.65014648 C-63.70361171 38.40372664 -62.87110238 37.15859818 -62.03662109 35.91479492 C-59.90033325 32.72686685 -57.79927125 29.52276033 -55.74926758 26.27856445 C-48.49934225 14.89741238 -40.57011828 5.44195149 -27.02049732 1.63929462 C-18.05563288 -0.14461866 -9.09595035 -0.01435699 0 0 Z " fill="#a855f7" transform="translate(171.284423828125,44.725341796875)"/>
<path d="M0 0 C30.36 0 60.72 0 92 0 C95.13026495 10.01684783 98.10050072 19.74239961 100.375 29.9375 C100.59044464 30.89935715 100.59044464 30.89935715 100.8102417 31.88064575 C106.56268557 57.73302143 110.6569108 83.91651991 113.9375 110.1875 C114.04531799 111.04874481 114.15313599 111.90998962 114.26422119 112.79733276 C114.56609113 115.23271583 114.86111321 117.66879244 115.15234375 120.10546875 C115.23946121 120.81922668 115.32657867 121.53298462 115.41633606 122.26837158 C115.87866237 126.2476513 116 129.96324958 116 134 C94.55 134 73.1 134 51 134 C51 127.07 51 120.14 51 113 C46.71 113 42.42 113 38 113 C38.01160156 114.43214844 38.02320313 115.86429687 38.03515625 117.33984375 C38.04453255 119.20572787 38.05363292 121.07161339 38.0625 122.9375 C38.07087891 123.88302734 38.07925781 124.82855469 38.08789062 125.80273438 C38.09111328 126.70185547 38.09433594 127.60097656 38.09765625 128.52734375 C38.10289307 129.35999756 38.10812988 130.19265137 38.11352539 131.05053711 C38 133 38 133 37 134 C35.1281906 134.09386381 33.2528194 134.11743804 31.37866211 134.11352539 C30.17749252 134.11344986 28.97632294 134.11337433 27.73875427 134.11329651 C26.4314888 134.10813522 25.12422333 134.10297394 23.77734375 134.09765625 C22.43355868 134.09579198 21.08977293 134.09436812 19.74598694 134.09336853 C16.20317723 134.08954402 12.6604083 134.07971432 9.11761475 134.06866455 C5.50484773 134.05844899 1.89207416 134.0538706 -1.72070312 134.04882812 C-8.8138188 134.03809198 -15.90690674 134.02101636 -23 134 C-23.12283343 119.28784692 -23.12283343 119.28784692 -22.3359375 112.42578125 C-22.11188232 110.46209595 -22.11188232 110.46209595 -21.88330078 108.45874023 C-21.71496307 107.07652625 -21.54549903 105.69444905 -21.375 104.3125 C-21.28796814 103.5905545 -21.20093628 102.86860901 -21.11126709 102.12478638 C-18.12241263 77.48367726 -13.9618155 53.06538039 -7.77197266 29.01757812 C-6.93624198 25.7507751 -6.12805639 22.4779159 -5.32421875 19.203125 C-3.08161129 10.09747913 -3.08161129 10.09747913 -2.19921875 6.56640625 C-1.99127686 5.73052979 -1.78333496 4.89465332 -1.5690918 4.03344727 C-1 2 -1 2 0 0 Z " fill="#FEF3E3" transform="translate(202,92)"/>
<path d="M0 0 C1.83110256 -0.0043542 3.66220331 -0.00953969 5.49330139 -0.01548767 C10.439734 -0.02881347 15.38608989 -0.02946347 20.33253694 -0.02692437 C24.47481763 -0.02585019 28.61708308 -0.03074949 32.75936049 -0.03552979 C42.53912966 -0.04660301 52.31886042 -0.04707485 62.09863281 -0.04101562 C72.15800972 -0.03497859 82.21724667 -0.04728506 92.27659971 -0.06858569 C100.94024727 -0.0862504 109.60385047 -0.09219535 118.26751536 -0.08894795 C123.42996226 -0.08714254 128.59230932 -0.08969663 133.75473976 -0.10366249 C138.61317459 -0.11631555 143.47139262 -0.1142266 148.32982445 -0.1012516 C150.10260469 -0.09890238 151.87540054 -0.10156039 153.64816284 -0.10987473 C168.44576198 -0.17421738 182.8571415 0.22965732 194.71557617 10.2746582 C205.14068339 20.61129209 209.09339798 30.30277773 209.2595042 44.95698369 C209.2691559 47.74979141 209.25931696 50.54216077 209.24902344 53.33496094 C209.25609021 55.35650256 209.26483841 57.37803888 209.27513123 59.39956665 C209.2975494 64.86451015 209.29470321 70.329163 209.28580976 75.79413486 C209.2806839 80.36657948 209.28800536 84.93897026 209.29528183 89.51140934 C209.31225672 100.30273916 209.30873915 111.09392748 209.29199219 121.88525391 C209.2750707 132.9967662 209.29091148 144.10788564 209.32321507 155.21935505 C209.34995294 164.7806489 209.35717569 174.34182077 209.34869999 183.90314823 C209.34378337 189.60437401 209.345918 195.30536349 209.3664875 201.00655937 C209.38491065 206.36906865 209.37880476 211.73101495 209.3542881 217.09349442 C209.34930138 219.05416779 209.35271396 221.01488456 209.36543655 222.97552299 C209.44593611 236.45385828 208.36889915 247.76752223 199.09057617 258.3371582 C198.33518555 259.21500977 197.57979492 260.09286133 196.80151367 260.99731445 C195.76897461 262.12459961 195.76897461 262.12459961 194.71557617 263.2746582 C193.89959961 264.16991211 193.89959961 264.16991211 193.06713867 265.08325195 C191.71557617 266.2746582 191.71557617 266.2746582 189.71557617 266.2746582 C189.48483398 266.83282227 189.2540918 267.39098633 189.01635742 267.96606445 C187.37024108 270.88755021 185.30484486 272.87520487 182.90307617 275.2121582 C182.05100586 276.04618164 181.19893555 276.88020508 180.32104492 277.73950195 C179.03133789 278.9944043 179.03133789 278.9944043 177.71557617 280.2746582 C175.15992823 282.81433334 172.62365887 285.36905603 170.11010742 287.95043945 C169.25803711 288.82055664 168.4059668 289.69067383 167.52807617 290.5871582 C166.66827148 291.47016602 165.8084668 292.35317383 164.92260742 293.26293945 C162.71557617 295.2746582 162.71557617 295.2746582 160.71557617 295.2746582 C160.48483398 295.83282227 160.2540918 296.39098633 160.01635742 296.96606445 C158.37024108 299.88755021 156.30484486 301.87520487 153.90307617 304.2121582 C153.05100586 305.04618164 152.19893555 305.88020508 151.32104492 306.73950195 C150.03133789 307.9944043 150.03133789 307.9944043 148.71557617 309.2746582 C146.08695171 311.8866458 143.47746195 314.51522667 140.89135742 317.16918945 C139.93695527 318.14187017 138.98252805 319.11452629 138.02807617 320.0871582 C137.54274414 320.58924805 137.05741211 321.09133789 136.55737305 321.60864258 C135.31433011 322.86883093 134.01857725 324.07656864 132.71557617 325.2746582 C132.05557617 325.2746582 131.39557617 325.2746582 130.71557617 325.2746582 C130.48483398 325.83282227 130.2540918 326.39098633 130.01635742 326.96606445 C128.37024108 329.88755021 126.30484486 331.87520487 123.90307617 334.2121582 C123.05100586 335.04618164 122.19893555 335.88020508 121.32104492 336.73950195 C120.03133789 337.9944043 120.03133789 337.9944043 118.71557617 339.2746582 C115.79432248 342.17152748 112.91018178 345.10115962 110.04370117 348.05200195 C108.68448511 349.43887649 107.32510651 350.82559175 105.96557617 352.2121582 C104.9678418 353.24759766 104.9678418 353.24759766 103.94995117 354.30395508 C95.59638012 362.77801033 85.64152646 369.92645795 73.34648705 370.40608597 C71.97786867 370.41417738 70.60921133 370.41678165 69.24057007 370.4151001 C68.1067159 370.41955678 68.1067159 370.41955678 66.94995558 370.4241035 C64.41527494 370.43277976 61.88064158 370.43429785 59.34594727 370.43579102 C57.5290924 370.44042004 55.71223851 370.44544482 53.89538574 370.45083618 C48.9570925 370.46395622 44.01881285 370.47040466 39.08050489 370.47484684 C35.99353446 370.47777891 32.90656772 370.48188403 29.81959915 370.48635101 C20.1564191 370.50002646 10.49324752 370.50969223 0.83005846 370.5135529 C-10.3152548 370.5180304 -21.46044521 370.53556379 -32.60572112 370.5645535 C-41.22584681 370.58619457 -49.845938 370.59625852 -58.46609056 370.59759402 C-63.61175597 370.59864054 -68.75730591 370.60451549 -73.90294266 370.62241364 C-78.74730697 370.63893567 -83.59146954 370.64102978 -88.43585205 370.63227463 C-90.2086987 370.6315064 -91.98155637 370.63581861 -93.75437546 370.64573288 C-115.188775 370.75851979 -115.188775 370.75851979 -124.09692383 364.3371582 C-124.78399414 363.85375977 -125.47106445 363.37036133 -126.17895508 362.87231445 C-127.22116211 362.08147461 -127.22116211 362.08147461 -128.28442383 361.2746582 C-129.10942383 360.6868457 -129.93442383 360.0990332 -130.78442383 359.4934082 C-133.70828055 356.89848536 -135.56956863 354.07558152 -137.47192383 350.7121582 C-137.81416992 350.15463867 -138.15641602 349.59711914 -138.5090332 349.02270508 C-144.21487604 339.08456717 -143.57939659 327.37708159 -143.55908203 316.26928711 C-143.563438 314.68286399 -143.56862407 313.09644298 -143.5745697 311.51002502 C-143.58787565 307.23099036 -143.58854782 302.95204448 -143.5860064 298.67299318 C-143.58493098 295.08733082 -143.58983457 291.501686 -143.59461182 287.91602743 C-143.6056779 279.44994549 -143.60616076 270.98390793 -143.60009766 262.51782227 C-143.59405953 253.81375381 -143.60637146 245.10984707 -143.62766773 236.40580618 C-143.64533874 228.90479594 -143.65127645 221.40383691 -143.64802998 213.90280664 C-143.64622577 209.43511511 -143.64876652 204.96753897 -143.66274452 200.49986649 C-143.67540825 196.29558177 -143.67329888 192.09154745 -143.66033363 187.88726616 C-143.6579868 186.35433679 -143.66063365 184.82138932 -143.66895676 183.28848076 C-143.72889975 171.37937025 -142.99973273 159.69336736 -136.65942383 149.3137207 C-136.14109985 148.45346786 -136.14109985 148.45346786 -135.61230469 147.57583618 C-134.5261365 145.79298589 -133.4117798 144.03171182 -132.28442383 142.2746582 C-131.92010254 141.70453003 -131.55578125 141.13440186 -131.18041992 140.54699707 C-128.60466322 136.54282992 -125.95304241 132.59229759 -123.28442383 128.6496582 C-122.52095468 127.51454294 -121.75793349 126.37912626 -120.99536133 125.2434082 C-119.48857353 123.00040553 -117.97945373 120.75900104 -116.46850586 118.51879883 C-113.7330698 114.45570086 -111.017469 110.37959853 -108.30297852 106.30249023 C-106.17978674 103.11770257 -104.04909269 99.9380266 -101.91723633 96.7590332 C-91.57506826 81.33235869 -91.57506826 81.33235869 -81.62866211 65.64892578 C-77.75403962 59.37136496 -73.65492727 53.25152678 -69.53442383 47.13354492 C-67.86031663 44.64396441 -66.19646477 42.14763163 -64.53417969 39.65014648 C-63.70361171 38.40372664 -62.87110238 37.15859818 -62.03662109 35.91479492 C-59.90033325 32.72686685 -57.79927125 29.52276033 -55.74926758 26.27856445 C-48.49934225 14.89741238 -40.57011828 5.44195149 -27.02049732 1.63929462 C-18.05563288 -0.14461866 -9.09595035 -0.01435699 0 0 Z M-38.53442383 9.5246582 C-39.6868457 10.33676758 -39.6868457 10.33676758 -40.86254883 11.1652832 C-46.85183878 16.38176154 -51.17107648 22.84332718 -55.47583008 29.45825195 C-56.05410553 30.3382486 -56.63238098 31.21824524 -57.22817993 32.12490845 C-59.10567638 34.98434979 -60.97630353 37.8482149 -62.84692383 40.7121582 C-64.15351011 42.70456687 -65.46056194 44.69667032 -66.76806641 46.68847656 C-70.01654234 51.6392705 -73.2597622 56.59347982 -76.50109863 61.5489502 C-80.39542182 67.50119487 -84.29723563 73.44853087 -88.19885254 79.39599609 C-89.47049133 81.33497394 -90.74125973 83.27452023 -92.01196289 85.21411133 C-97.1236725 93.01200262 -102.2808698 100.7780224 -107.4680481 108.52587891 C-113.74773465 117.90627847 -119.94756477 127.33090615 -126.03442383 136.8371582 C-126.67806885 137.84190186 -127.32171387 138.84664551 -127.98486328 139.88183594 C-129.76341392 142.67206513 -131.5265055 145.47139546 -133.28442383 148.2746582 C-134.13230469 149.604729 -134.13230469 149.604729 -134.99731445 150.96166992 C-135.5303418 151.81647949 -136.06336914 152.67128906 -136.61254883 153.55200195 C-137.31492676 154.6675647 -137.31492676 154.6675647 -138.03149414 155.80566406 C-140.77718149 161.21625179 -141.53537573 166.43413562 -141.55184937 172.44485474 C-141.55638048 173.1317837 -141.56091159 173.81871267 -141.56558001 174.52645767 C-141.57815936 176.80994473 -141.57660785 179.09319129 -141.57495117 181.37670898 C-141.58094064 183.02165531 -141.58774715 184.66659883 -141.5953064 186.3115387 C-141.61293512 190.76848159 -141.61766057 195.22534763 -141.61893797 199.68232203 C-141.62036237 202.4720085 -141.62463753 205.26167562 -141.6299324 208.05135727 C-141.64842524 217.79865503 -141.65660431 227.54589817 -141.6550293 237.29321289 C-141.65382943 246.35396189 -141.67490321 255.41447209 -141.70651662 264.47516072 C-141.73274738 272.27332868 -141.74339369 280.071419 -141.74211848 287.86963069 C-141.74161066 292.51851037 -141.74719288 297.16717792 -141.76847458 301.81601334 C-141.78797086 306.19429712 -141.78790439 310.57216896 -141.77344131 314.95046806 C-141.77136587 316.54790162 -141.77597777 318.14536173 -141.78816223 319.74275017 C-141.8820801 332.92017404 -140.53333714 345.17885645 -131.28442383 355.2746582 C-130.49745117 356.19698242 -130.49745117 356.19698242 -129.69458008 357.13793945 C-124.55276323 362.78788879 -117.83989137 366.81241068 -110.28442383 368.2746582 C-107.76053817 368.37436552 -105.26409531 368.42248243 -102.74021912 368.42182922 C-101.59517264 368.42734426 -101.59517264 368.42734426 -100.42699391 368.4329707 C-97.86701255 368.44399064 -95.30707182 368.44784854 -92.74707031 368.45166016 C-90.9121335 368.45792619 -89.07719795 368.46457312 -87.24226379 368.47157288 C-81.21335736 368.49260286 -75.1844507 368.50297579 -69.15551758 368.51293945 C-67.07801869 368.51698771 -65.00051993 368.52110466 -62.92302132 368.52528954 C-53.15999548 368.54434061 -43.39697719 368.55857058 -33.63393635 368.5669015 C-22.37596672 368.57666731 -11.11819406 368.60297012 0.13970619 368.6434024 C8.84816863 368.67360149 17.55657473 368.68837407 26.2650885 368.69168252 C31.46280562 368.69402909 36.6603123 368.70293823 41.8579731 368.72814369 C46.75244886 368.7514951 51.64657671 368.75562926 56.54109383 368.74538231 C58.33126485 368.74488852 60.12145341 368.75116238 61.9115715 368.76493835 C79.61892027 368.89351113 89.78986037 364.96055311 102.59857178 352.65908813 C104.38054984 350.89488861 106.15722074 349.12531744 107.92944336 347.35131836 C108.91732795 346.36943315 109.90561605 345.38795378 110.89427185 344.40684509 C113.55377383 341.76485789 116.20690313 339.11656274 118.85830212 336.4664464 C120.5194742 334.80670372 122.18206565 333.14839647 123.84516144 331.49058151 C129.65906242 325.69512625 135.4678332 319.89458643 141.27172852 314.08911133 C146.66414189 308.69549508 152.06762938 303.31315255 157.47639155 297.93593562 C162.13771701 293.30082109 166.79123805 288.65796721 171.43883824 284.00909078 C174.20702313 281.24039809 176.978165 278.47484048 179.75722504 275.71706009 C182.36982179 273.12392953 184.97250392 270.52123104 187.5681324 267.91111946 C188.96670539 266.50948397 190.37510361 265.11767333 191.78385925 263.72627258 C200.6039611 254.81847138 206.97179065 244.66659444 207.12146848 231.79405886 C207.11245342 230.64714741 207.11245342 230.64714741 207.10325623 229.47706604 C207.10864176 228.63930364 207.1140273 227.80154124 207.11957604 226.9383921 C207.13378017 224.15652857 207.12677071 221.37514598 207.11962891 218.59326172 C207.1253364 216.58847677 207.13230213 214.58369507 207.14042664 212.57891846 C207.15833065 207.15122004 207.15719487 201.72368353 207.15148425 196.29596448 C207.14838857 191.75823431 207.15448905 187.22053506 207.160523 182.68280929 C207.17455743 171.97503667 207.17301578 161.26734385 207.16162109 150.55957031 C207.15013943 139.52650264 207.16421893 128.49367804 207.19101757 117.4606424 C207.21319383 107.97416621 207.21980763 98.48776621 207.21394116 89.00126594 C207.21057519 83.34146326 207.21296289 77.68181639 207.23019218 72.0220356 C207.24568996 66.69902941 207.24167416 61.37638264 207.22288704 56.0533905 C207.2192091 54.10477707 207.22228633 52.15613683 207.23277283 50.20754814 C207.30448951 35.77459555 205.99227377 25.22290238 195.71557617 14.2746582 C184.05180575 3.11800823 171.62272795 2.68800758 156.35791016 2.77294922 C154.41194265 2.7691608 152.46597785 2.76365646 150.52001953 2.75657654 C145.26178688 2.74267392 140.00388334 2.75375478 134.74566913 2.77028775 C129.22904915 2.78419135 123.71244724 2.77767221 118.19581604 2.77415466 C108.93485239 2.77145696 99.67401867 2.78489108 90.41308594 2.80810547 C79.72196156 2.83472021 69.03105423 2.83645811 58.33990806 2.8247171 C48.03332534 2.81392075 37.72682075 2.82014049 27.42024422 2.83427238 C23.04369308 2.84001526 18.66719945 2.83996291 14.29064751 2.83520699 C9.13344229 2.83041841 3.97647337 2.84061664 -1.18068695 2.86216164 C-3.06801748 2.8677038 -4.95537084 2.86821856 -6.84270287 2.86320877 C-23.56026749 2.69747085 -23.56026749 2.69747085 -38.53442383 9.5246582 Z " fill="#F5DBDE" transform="translate(171.284423828125,44.725341796875)"/>
<path d="M0 0 C1.13984847 3.63154886 1.11225497 7.01899368 1.09333801 10.80943298 C1.09137017 11.49379868 1.08940234 12.17816437 1.08737487 12.88326842 C1.07965732 15.17604926 1.06479107 17.468729 1.05004883 19.76147461 C1.04321776 21.40597339 1.03688761 23.05047431 1.03102112 24.69497681 C1.01768833 28.23789502 1.00154739 31.78078568 0.98346901 35.32368279 C0.95560766 40.93538213 0.93861644 46.54708115 0.92399597 52.15882874 C0.91885184 54.08201126 0.91369522 56.00519374 0.90852642 57.9283762 C0.90594086 58.89160742 0.9033553 59.85483864 0.90069139 60.84725869 C0.86469006 73.90971466 0.81944351 86.97208504 0.75317383 100.03442383 C0.70855069 108.8472603 0.6783786 117.66002174 0.66431636 126.47296149 C0.65627299 131.13199169 0.6408922 135.79073528 0.60764503 140.44965935 C0.57637169 144.84016135 0.5641303 149.2303206 0.56586266 153.62092972 C0.56318782 155.2232196 0.55374327 156.82551642 0.53663635 158.42771721 C0.4036714 171.45741915 1.58009832 184.14600147 11 194 C19.35449629 202.42382821 28.72865202 207.14527125 40.76998425 207.28433573 C41.45094316 207.282401 42.13190207 207.28046626 42.83349609 207.2784729 C43.57945447 207.2842653 44.32541285 207.2900577 45.09397602 207.29602563 C47.57050818 207.31290589 50.04685265 207.3158917 52.5234375 207.31884766 C54.30785065 207.32815412 56.09225948 207.33832385 57.87666321 207.34928894 C62.70453874 207.37652204 67.5323852 207.39171849 72.36031723 207.40471697 C77.41187615 207.42037683 82.46337596 207.44715793 87.51489258 207.4727478 C97.07337345 207.51948508 106.63186549 207.55625363 116.19040203 207.58942068 C127.07554401 207.62767777 137.96062655 207.67707854 148.84571838 207.72740483 C171.23043483 207.83064955 193.61518949 207.91993419 216 208 C216 208.33 216 208.66 216 209 C192.18210865 209.07013916 168.36423282 209.12301225 144.54625893 209.15543652 C133.48669605 209.17089307 122.42719742 209.19195947 111.36767578 209.22631836 C101.72609964 209.25625775 92.08457004 209.27558381 82.4429487 209.28226548 C77.33969064 209.28617004 72.23656569 209.29532111 67.13335037 209.31719017 C62.32516504 209.33762702 57.51716705 209.34381927 52.70894241 209.33932304 C50.94899476 209.34014503 49.18904051 209.34606763 47.42913055 209.35761642 C26.10503355 209.49062648 26.10503355 209.49062648 17.1875 203.0625 C16.50042969 202.57910156 15.81335938 202.09570312 15.10546875 201.59765625 C14.06326172 200.80681641 14.06326172 200.80681641 13 200 C12.175 199.4121875 11.35 198.824375 10.5 198.21875 C7.57614328 195.62382716 5.7148552 192.80092332 3.8125 189.4375 C3.47025391 188.87998047 3.12800781 188.32246094 2.77539062 187.74804688 C-2.94563967 177.78345625 -2.29087744 166.05048277 -2.25878906 154.9152832 C-2.26150445 153.3207483 -2.26506844 151.72621466 -2.26940918 150.13168335 C-2.27846809 145.83231619 -2.27501654 141.53304583 -2.26865101 137.23367715 C-2.26355981 132.71976237 -2.26829084 128.20585544 -2.27142334 123.69194031 C-2.27505281 116.11744714 -2.27028953 108.54299308 -2.26074219 100.96850586 C-2.2498478 92.22460659 -2.25339446 83.48080053 -2.264395 74.73690349 C-2.27348288 67.21049622 -2.27474616 59.68411694 -2.26951766 52.15770596 C-2.26640773 47.6706411 -2.26596193 43.18362001 -2.27259064 38.696558 C-2.27838576 34.48001761 -2.27432769 30.26359705 -2.26280212 26.04706955 C-2.26016761 24.50398011 -2.26089987 22.96088051 -2.26532745 21.41779518 C-2.30269772 7.06605632 -2.30269772 7.06605632 0 0 Z " fill="#FEFAC4" transform="translate(30,206)"/>
<path d="M0 0 C1.21181627 0.00484369 1.21181627 0.00484369 2.44811368 0.00978523 C5.15818582 0.02185989 7.86815664 0.04123288 10.57818604 0.06056213 C12.51963582 0.07070497 14.461088 0.08039864 16.40254211 0.0896759 C21.67696332 0.11615643 26.95132895 0.1489361 32.22570705 0.1828258 C37.73634849 0.21716925 43.2470197 0.24574856 48.75769043 0.27493286 C59.19466876 0.33108586 69.63160979 0.39244124 80.06854749 0.4556542 C91.94989172 0.527363 103.83126582 0.59328967 115.71264601 0.65872467 C140.15516946 0.7934682 164.59764628 0.93549248 189.0401001 1.08229065 C189.0401001 1.41229065 189.0401001 1.74229065 189.0401001 2.08229065 C188.04434023 2.084679 187.04858036 2.08706736 186.02264595 2.08952808 C161.77625901 2.14836315 137.52997112 2.22427082 113.28369331 2.31800556 C101.558299 2.3629414 89.8329349 2.40236123 78.10748291 2.4287262 C67.88573509 2.45172412 57.6640831 2.48514233 47.4424113 2.53099221 C42.03179502 2.55490009 36.6212735 2.57364487 31.21060562 2.57990456 C26.1134458 2.58596635 21.01652836 2.60600598 15.91945839 2.63656616 C14.05310946 2.6453288 12.18672884 2.64907266 10.32036018 2.64729881 C-6.3558902 2.5272461 -6.3558902 2.5272461 -21.2723999 9.39479065 C-22.05228271 9.94779846 -22.83216553 10.50080627 -23.63568115 11.0705719 C-29.20667663 15.89252597 -33.05818979 22.0490045 -37.0536499 28.16822815 C-37.6333403 29.04963974 -38.2130307 29.93105133 -38.81028748 30.83917236 C-40.69694897 33.7096248 -42.5784283 36.58343437 -44.4598999 39.45729065 C-45.7711664 41.45417626 -47.08277416 43.45083782 -48.39471436 45.44728088 C-52.25423882 51.32269657 -56.10748138 57.20221431 -59.9598999 63.08229065 C-63.26437834 68.12350952 -66.56975317 73.16414066 -69.87533569 78.20463562 C-70.7245059 79.49979182 -71.5734433 80.7951007 -72.42214966 82.09056091 C-77.95357874 90.53361962 -83.52814764 98.94607427 -89.14352417 107.33351135 C-95.42321072 116.71391091 -101.62304084 126.1385386 -107.7098999 135.64479065 C-108.35354492 136.6495343 -108.99718994 137.65427795 -109.66033936 138.68946838 C-111.43889552 141.47970623 -113.2027117 144.27855666 -114.9598999 147.08229065 C-115.82518311 148.44716614 -115.82518311 148.44716614 -116.70794678 149.83961487 C-117.52102295 151.14889954 -117.52102295 151.14889954 -118.3505249 152.4846344 C-118.83037842 153.25154602 -119.31023193 154.01845764 -119.80462646 154.80860901 C-121.03971811 157.23938004 -121.55105933 159.39727462 -121.9598999 162.08229065 C-122.6198999 161.42229065 -123.2798999 160.76229065 -123.9598999 160.08229065 C-123.1805662 149.00357494 -112.10146654 136.53089251 -105.9598999 127.45729065 C-105.19643075 126.32217539 -104.43340956 125.18675871 -103.6708374 124.05104065 C-102.1640496 121.80803797 -100.6549298 119.56663348 -99.14398193 117.32643127 C-96.40854587 113.26333331 -93.69294507 109.18723097 -90.97845459 105.11012268 C-88.85526281 101.92533501 -86.72456877 98.74565904 -84.5927124 95.56666565 C-74.25054434 80.13999113 -74.25054434 80.13999113 -64.30413818 64.45655823 C-60.42951569 58.17899741 -56.33040334 52.05915923 -52.2098999 45.94117737 C-50.5357927 43.45159686 -48.87194084 40.95526407 -47.20965576 38.45777893 C-46.37908779 37.21135909 -45.54657846 35.96623063 -44.71209717 34.72242737 C-42.57580933 31.5344993 -40.47474732 28.33039278 -38.42474365 25.0861969 C-31.19241588 13.73267001 -23.5208084 4.96256019 -10.31603622 0.53054905 C-6.88404407 -0.12239251 -3.4789584 -0.03135672 0 0 Z " fill="#F0CDDF" transform="translate(153.95989990234375,45.91770935058594)"/>
<path d="M0 0 C0.33 0.99 0.66 1.98 1 3 C-1.70182292 5.70182292 -4.40364583 8.40364583 -7.10546875 11.10546875 C-7.59152588 11.59168701 -8.07758301 12.07790527 -8.57836914 12.57885742 C-9.88702558 13.88706438 -11.19734114 15.1936111 -12.5078125 16.5 C-14.29090899 18.28868613 -16.06200857 20.0855606 -17.82421875 21.89453125 C-18.7786209 22.86721196 -19.73304812 23.83986808 -20.6875 24.8125 C-21.17283203 25.31458984 -21.65816406 25.81667969 -22.15820312 26.33398438 C-23.40124606 27.59417273 -24.69699892 28.80191044 -26 30 C-26.66 30 -27.32 30 -28 30 C-28.23074219 30.55816406 -28.46148437 31.11632812 -28.69921875 31.69140625 C-30.34533509 34.61289201 -32.41073132 36.60054666 -34.8125 38.9375 C-35.66457031 39.77152344 -36.51664063 40.60554688 -37.39453125 41.46484375 C-38.68423828 42.71974609 -38.68423828 42.71974609 -40 44 C-42.92125369 46.89686927 -45.80539439 49.82650142 -48.671875 52.77734375 C-50.03109107 54.16421828 -51.39046966 55.55093354 -52.75 56.9375 C-53.41515625 57.62779297 -54.0803125 58.31808594 -54.765625 59.02929688 C-64.04724514 68.44478653 -74.03783464 74.69979504 -87.56503105 75.10743046 C-88.90770558 75.10431152 -90.25037479 75.09559155 -91.59298706 75.08229065 C-92.33723659 75.07906152 -93.08148611 75.07583239 -93.84828866 75.07250541 C-96.33104161 75.06048424 -98.81368107 75.04110051 -101.29638672 75.02172852 C-103.08049781 75.01158 -104.86461155 75.00188696 -106.64872742 74.99261475 C-111.48503118 74.96619107 -116.32127325 74.93339994 -121.15752935 74.89946485 C-126.21438294 74.86506499 -131.27126951 74.83652215 -136.32815552 74.80735779 C-145.9009204 74.75125934 -155.47364399 74.68989415 -165.04636395 74.62663645 C-175.94590876 74.55486738 -186.8454866 74.48897016 -197.74507117 74.42356598 C-220.16342364 74.28891061 -242.58172454 74.14688188 -265 74 C-265 73.67 -265 73.34 -265 73 C-264.06185298 72.99853344 -263.12370596 72.99706688 -262.15713024 72.99555588 C-239.30402141 72.95892091 -216.45105868 72.89941889 -193.5980711 72.81609726 C-182.54641675 72.77632959 -171.49483337 72.74392553 -160.44311523 72.72900391 C-150.80767444 72.71597565 -141.17238995 72.68898091 -131.53703719 72.64538693 C-126.43767222 72.62279865 -121.33849986 72.60708775 -116.23908043 72.60811615 C-111.43322516 72.60886431 -106.62779525 72.59085083 -101.82205009 72.55883217 C-100.06416516 72.55035695 -98.30623238 72.54856698 -96.54833603 72.55419731 C-77.88976593 72.60596956 -67.53040606 67.54840365 -54.37866211 54.60571289 C-51.83504012 52.07109064 -49.30609997 49.52209667 -46.77734375 46.97265625 C-45.42301156 45.61458716 -44.06823213 44.25696396 -42.71302795 42.89976501 C-39.17246821 39.35162214 -35.63795984 35.79751174 -32.10473633 32.24206543 C-28.48821832 28.60497356 -24.86592872 24.97363953 -21.24414062 21.34179688 C-14.15714405 14.23344441 -7.07653578 7.11876546 0 0 Z " fill="#EFCCDE" transform="translate(330,340)"/>
<path d="M0 0 C24.33943921 -0.04675691 48.67887168 -0.08200695 73.01834679 -0.10362434 C84.32002643 -0.11392924 95.62167813 -0.12797455 106.92333984 -0.15087891 C116.77586658 -0.17083684 126.62837309 -0.18372216 136.48091948 -0.18817699 C141.69592712 -0.19078029 146.91087688 -0.19688284 152.12586594 -0.21146011 C157.03908269 -0.22508198 161.95221797 -0.22921334 166.86545181 -0.22621536 C168.66409498 -0.22676347 170.46274101 -0.23071338 172.2613678 -0.23841095 C191.92037641 -0.31838555 191.92037641 -0.31838555 198 2 C198.33 2.66 198.66 3.32 199 4 C198.44699284 3.92964808 197.89398567 3.85929616 197.32422072 3.78681237 C192.08229461 3.15660319 186.94338133 2.84898045 181.66661072 2.84178162 C180.87896239 2.83684364 180.09131407 2.83190566 179.27979761 2.82681805 C176.66822312 2.81158852 174.05667291 2.80312236 171.44506836 2.79467773 C169.56198924 2.78508774 167.67891223 2.77507701 165.7958374 2.76467896 C160.70357107 2.73774529 155.61129557 2.71667357 150.51899791 2.69667697 C145.18985897 2.67474589 139.86074789 2.64739217 134.53163147 2.62062073 C124.44902058 2.57078986 114.36639415 2.52581555 104.28375298 2.48259836 C92.80127757 2.43314369 81.31883012 2.37825618 69.83638179 2.32291877 C46.22428064 2.20924626 22.61215264 2.10237537 -1 2 C-0.67 1.34 -0.34 0.68 0 0 Z " fill="#FEF8F1" transform="translate(153,45)"/>
<path d="M0 0 C2.31 0 4.62 0 7 0 C7.87801178 10.03442033 8.1176305 19.93605753 8 30 C5.03 30 2.06 30 -1 30 C-0.67 20.1 -0.34 10.2 0 0 Z " fill="#a855f7" transform="translate(243,157)"/>
<path d="M0 0 C1.50854058 2.89693192 2.7234872 5.82016026 3.875 8.875 C8.00904587 19.2176862 14.40217583 26.30447772 24.48828125 31 C27.95634915 32.38075487 31.34419134 33.25529824 35 34 C34.505 34.99 34.505 34.99 34 36 C25.78875225 34.4161045 19.59134553 32.17439601 13 27 C12.17886719 26.41605469 11.35773437 25.83210938 10.51171875 25.23046875 C7.53572955 22.58771629 5.67249681 19.68091738 3.75 16.25 C3.399375 15.66734375 3.04875 15.0846875 2.6875 14.484375 C0.12307784 9.98677306 -0.7088195 6.17405349 -1 1 C-0.67 0.67 -0.34 0.34 0 0 Z " fill="#F6E4E6" transform="translate(30,379)"/>
<path d="M0 0 C8.1925811 1.10152351 14.36734546 6.96160599 19.6640625 12.81640625 C21 15 21 15 20.7109375 17.27734375 C20.47632813 17.84582031 20.24171875 18.41429688 20 19 C19.68289063 18.50371094 19.36578125 18.00742188 19.0390625 17.49609375 C13.9351315 10.06578535 6.94724772 4.11908499 -2 2 C-1.34 1.34 -0.68 0.68 0 0 Z " fill="#F5DCE2" transform="translate(352,48)"/>
<path d="M0 0 C0.99 0.33 1.98 0.66 3 1 C2.31292969 1.97839844 1.62585937 2.95679688 0.91796875 3.96484375 C-5.89242244 13.81494423 -5.89242244 13.81494423 -10 25 C-10.66 24.34 -11.32 23.68 -12 23 C-11.72120281 18.41624624 -9.41085719 14.80051672 -7.125 10.9375 C-6.77308594 10.32583984 -6.42117187 9.71417969 -6.05859375 9.08398438 C-4.21037886 5.90629148 -2.28483748 2.88119443 0 0 Z " fill="#F8E6E5" transform="translate(42,183)"/>
<path d="M0 0 C3.25272132 0.66397293 5.83186746 1.87155945 8.75 3.4375 C13.14483584 5.69360267 17.16983111 7.01607671 22 8 C21.67 8.66 21.34 9.32 21 10 C12.94123905 8.44551819 6.35419097 6.35934289 0 1 C0 0.67 0 0.34 0 0 Z " fill="#FBECE3" transform="translate(43,405)"/>
<path d="M0 0 C2.86469884 2.44607523 3.92891276 4.85481348 5.1875 8.375 C5.53167969 9.31085938 5.87585938 10.24671875 6.23046875 11.2109375 C6.98764758 13.95523031 7.14916724 16.17096621 7 19 C6.34 19 5.68 19 5 19 C4.34922704 16.95990245 3.70460176 14.91784331 3.0625 12.875 C2.70285156 11.73804687 2.34320313 10.60109375 1.97265625 9.4296875 C1.08101661 6.28567301 0.46648986 3.23105607 0 0 Z " fill="#FDF5ED" transform="translate(373,64)"/>
<path d="M0 0 C0.33 0.99 0.66 1.98 1 3 C-0.43359375 5.69921875 -0.43359375 5.69921875 -2.4375 8.6875 C-3.09621094 9.68136719 -3.75492188 10.67523438 -4.43359375 11.69921875 C-4.95050781 12.45847656 -5.46742187 13.21773437 -6 14 C-6.99 13.67 -7.98 13.34 -9 13 C-6.03 8.71 -3.06 4.42 0 0 Z " fill="#F9EBD4" transform="translate(67,145)"/>
<path d="M0 0 C1.6720218 3.1632845 2.92221136 6.3821918 4.125 9.75 C4.47820313 10.73484375 4.83140625 11.7196875 5.1953125 12.734375 C5.46085937 13.48203125 5.72640625 14.2296875 6 15 C5.01 15 4.02 15 3 15 C0.24467166 10.20812462 -0.63176357 6.43148733 -1 1 C-0.67 0.67 -0.34 0.34 0 0 Z " fill="#F6D9D7" transform="translate(30,379)"/>
<path d="M0 0 C3.08693704 1.35852131 5.08641734 2.84510953 7.3125 5.375 C7.84488281 5.96023437 8.37726563 6.54546875 8.92578125 7.1484375 C10 9 10 9 9.66796875 11.2265625 C9.44753906 11.81179687 9.22710937 12.39703125 9 13 C8.60167969 12.45730469 8.20335937 11.91460937 7.79296875 11.35546875 C7.26316406 10.64003906 6.73335938 9.92460938 6.1875 9.1875 C5.66542969 8.47980469 5.14335937 7.77210937 4.60546875 7.04296875 C3.06893533 4.99125475 3.06893533 4.99125475 1.30078125 3.36328125 C0 2 0 2 0 0 Z " fill="#F9E6E5" transform="translate(363,54)"/>
<path d="M0 0 C0 0.66 0 1.32 0 2 C-3.96 2.99 -7.92 3.98 -12 5 C-11.67 4.01 -11.34 3.02 -11 2 C-7.24092359 0.37676246 -4.07913787 -0.23994929 0 0 Z " fill="#FAE3E4" transform="translate(151,46)"/>
<path d="M0 0 C0.33 0 0.66 0 1 0 C1.5497272 5.63470383 -0.04952165 8.38987758 -3 13 C-3.99 12.67 -4.98 12.34 -6 12 C-5.38125 10.948125 -4.7625 9.89625 -4.125 8.8125 C-2.48420892 5.94984323 -1.13015547 3.10792754 0 0 Z " fill="#F6DFE1" transform="translate(376,287)"/>
<path d="M0 0 C-0.33 0.99 -0.66 1.98 -1 3 C-2.60049704 3.39036513 -4.20562371 3.76178619 -5.8125 4.125 C-6.70582031 4.33382813 -7.59914062 4.54265625 -8.51953125 4.7578125 C-11 5 -11 5 -14 3 C-12.0424015 2.49713066 -10.08389623 1.9977901 -8.125 1.5 C-7.03445312 1.2215625 -5.94390625 0.943125 -4.8203125 0.65625 C-2 0 -2 0 0 0 Z " fill="#F8E2E5" transform="translate(257,410)"/>
<path d="M0 0 C0.33 0.99 0.66 1.98 1 3 C-1.31 4.98 -3.62 6.96 -6 9 C-6 6 -6 6 -4.6875 4.39453125 C-4.130625 3.87246094 -3.57375 3.35039062 -3 2.8125 C-2.443125 2.28269531 -1.88625 1.75289063 -1.3125 1.20703125 C-0.6628125 0.60955078 -0.6628125 0.60955078 0 0 Z " fill="#FCE5D4" transform="translate(278,392)"/>
<path d="M0 0 C0.99 0.33 1.98 0.66 3 1 C0.525 4.465 0.525 4.465 -2 8 C-2.99 7.67 -3.98 7.34 -5 7 C-3.35 4.69 -1.7 2.38 0 0 Z " fill="#F6C0C5" transform="translate(42,183)"/>
<path d="M0 0 C0.66 0 1.32 0 2 0 C0.7580393 3.43927579 -0.55740284 6.25207819 -3 9 C-3.66 9 -4.32 9 -5 9 C-3.7580393 5.56072421 -2.44259716 2.74792181 0 0 Z " fill="#F9CBC9" transform="translate(108,83)"/>
<path d="M0 0 C0.99 0.33 1.98 0.66 3 1 C1.02 3.97 -0.96 6.94 -3 10 C-4 6 -4 6 -2.0625 2.75 C-1.381875 1.8425 -0.70125 0.935 0 0 Z " fill="#F6DFE1" transform="translate(86,116)"/>
</svg>
